<svg width="66" height="49" viewBox="0 0 66 49" fill="none" xmlns="http://www.w3.org/2000/svg">
<g filter="url(#filter0_dd_1_18)">
<rect x="9.8429" y="5" width="46.6143" height="30.0304" rx="5.37857" fill="white"/>
<rect x="9.73084" y="4.88795" width="46.8384" height="30.2545" rx="5.49062" stroke="#D6DCE5" stroke-width="0.224107"/>
<path d="M24.9199 16.0816C25.2309 15.6926 25.442 15.1703 25.3863 14.6366C24.9311 14.6592 24.3755 14.9369 24.0539 15.3262C23.7651 15.6596 23.5095 16.2037 23.5761 16.7151C24.0872 16.7594 24.5977 16.4596 24.9199 16.0816Z" fill="#000008"/>
<path d="M25.3805 16.8149C24.6384 16.7707 24.0073 17.2361 23.6529 17.2361C23.2983 17.2361 22.7556 16.8372 22.1686 16.8479C21.4046 16.8592 20.6957 17.2911 20.3079 17.9782C19.5105 19.3527 20.0975 21.3915 20.873 22.5109C21.2496 23.0647 21.7034 23.6745 22.3014 23.6526C22.8665 23.6304 23.0879 23.2867 23.7748 23.2867C24.4611 23.2867 24.6606 23.6526 25.2587 23.6415C25.879 23.6304 26.2667 23.0874 26.6433 22.533C27.0753 21.9017 27.2522 21.2921 27.2633 21.2587C27.2522 21.2476 26.0673 20.793 26.0563 19.43C26.0451 18.2887 26.9866 17.7459 27.0309 17.7122C26.4992 16.9259 25.6685 16.8372 25.3805 16.8149Z" fill="#000008"/>
<path d="M31.8426 15.2704C33.4556 15.2704 34.5789 16.3823 34.5789 18.0011C34.5789 19.6257 33.4325 20.7434 31.8021 20.7434H30.0162V23.5836H28.7258V15.2704L31.8426 15.2704ZM30.0162 19.6603H31.4968C32.6202 19.6603 33.2596 19.0554 33.2596 18.0069C33.2596 16.9584 32.6202 16.3593 31.5025 16.3593H30.0162V19.6603Z" fill="#000008"/>
<path d="M34.916 21.861C34.916 20.8009 35.7283 20.15 37.1687 20.0693L38.8277 19.9714V19.5048C38.8277 18.8307 38.3726 18.4275 37.6123 18.4275C36.892 18.4275 36.4426 18.7731 36.3332 19.3147H35.158C35.2271 18.22 36.1603 17.4135 37.6583 17.4135C39.1273 17.4135 40.0663 18.1912 40.0663 19.4068V23.5836H38.8737V22.5869H38.8451C38.4937 23.261 37.7274 23.6872 36.9324 23.6872C35.7456 23.6872 34.916 22.9498 34.916 21.861ZM38.8277 21.3138V20.8356L37.3356 20.9277C36.5924 20.9796 36.1719 21.308 36.1719 21.8265C36.1719 22.3564 36.6097 22.7021 37.278 22.7021C38.1479 22.7021 38.8277 22.103 38.8277 21.3138Z" fill="#000008"/>
<path d="M41.1922 25.8131V24.8049C41.2842 24.8279 41.4915 24.8279 41.5953 24.8279C42.1714 24.8279 42.4825 24.586 42.6726 23.9638C42.6726 23.9523 42.7821 23.5951 42.7821 23.5893L40.593 17.5229H41.9409L43.4735 22.4544H43.4964L45.029 17.5229H46.3425L44.0725 23.9004C43.5542 25.3695 42.955 25.8419 41.6991 25.8419C41.5953 25.8419 41.2842 25.8303 41.1922 25.8131Z" fill="#000008"/>
</g>
<defs>
<filter id="filter0_dd_1_18" x="0.654502" y="0.29375" width="64.9911" height="48.4071" filterUnits="userSpaceOnUse" color-interpolation-filters="sRGB">
<feFlood flood-opacity="0" result="BackgroundImageFix"/>
<feColorMatrix in="SourceAlpha" type="matrix" values="0 0 0 0 0 0 0 0 0 0 0 0 0 0 0 0 0 0 127 0" result="hardAlpha"/>
<feOffset dy="0.448214"/>
<feGaussianBlur stdDeviation="2.24107"/>
<feColorMatrix type="matrix" values="0 0 0 0 0.717647 0 0 0 0 0.717647 0 0 0 0 0.717647 0 0 0 0.08 0"/>
<feBlend mode="normal" in2="BackgroundImageFix" result="effect1_dropShadow_1_18"/>
<feColorMatrix in="SourceAlpha" type="matrix" values="0 0 0 0 0 0 0 0 0 0 0 0 0 0 0 0 0 0 127 0" result="hardAlpha"/>
<feOffset dy="4.48214"/>
<feGaussianBlur stdDeviation="4.48214"/>
<feColorMatrix type="matrix" values="0 0 0 0 0.717647 0 0 0 0 0.717647 0 0 0 0 0.717647 0 0 0 0.08 0"/>
<feBlend mode="normal" in2="effect1_dropShadow_1_18" result="effect2_dropShadow_1_18"/>
<feBlend mode="normal" in="SourceGraphic" in2="effect2_dropShadow_1_18" result="shape"/>
</filter>
</defs>
</svg>
